<mxfile host="app.diagrams.net" agent="Mozilla/5.0 (Windows NT 10.0; Win64; x64) AppleWebKit/537.36 (KHTML, like Gecko) Chrome/128.0.0.0 Safari/537.36 Edg/128.0.0.0" version="24.7.14">
  <diagram name="Página-1" id="f9eNDoXbB8AOUwdexNAj">
    <mxGraphModel dx="1426" dy="749" grid="1" gridSize="10" guides="1" tooltips="1" connect="1" arrows="1" fold="1" page="1" pageScale="1" pageWidth="827" pageHeight="1169" math="0" shadow="0">
      <root>
        <mxCell id="0" />
        <mxCell id="1" parent="0" />
        <mxCell id="2aaTuEuAqetz4Rh4aNKG-4" value="FORMA DE PAGAMENTO" style="rounded=0;whiteSpace=wrap;html=1;" vertex="1" parent="1">
          <mxGeometry x="281" width="266" height="60" as="geometry" />
        </mxCell>
        <mxCell id="2aaTuEuAqetz4Rh4aNKG-11" style="edgeStyle=orthogonalEdgeStyle;rounded=0;orthogonalLoop=1;jettySize=auto;html=1;exitX=0.5;exitY=1;exitDx=0;exitDy=0;entryX=0.5;entryY=0;entryDx=0;entryDy=0;" edge="1" parent="1" source="2aaTuEuAqetz4Rh4aNKG-5" target="2aaTuEuAqetz4Rh4aNKG-6">
          <mxGeometry relative="1" as="geometry" />
        </mxCell>
        <mxCell id="2aaTuEuAqetz4Rh4aNKG-5" value="INICIO" style="ellipse;whiteSpace=wrap;html=1;" vertex="1" parent="1">
          <mxGeometry x="272" y="90" width="284" height="80" as="geometry" />
        </mxCell>
        <mxCell id="2aaTuEuAqetz4Rh4aNKG-6" value="INTEIRO FORMAPAGAMENTO&lt;div&gt;REAL VALORPRODUTO, VALORFINAL&lt;/div&gt;" style="rounded=0;whiteSpace=wrap;html=1;" vertex="1" parent="1">
          <mxGeometry x="280" y="190" width="270" height="60" as="geometry" />
        </mxCell>
        <mxCell id="2aaTuEuAqetz4Rh4aNKG-14" value="" style="edgeStyle=orthogonalEdgeStyle;rounded=0;orthogonalLoop=1;jettySize=auto;html=1;" edge="1" parent="1" source="2aaTuEuAqetz4Rh4aNKG-7" target="2aaTuEuAqetz4Rh4aNKG-9">
          <mxGeometry relative="1" as="geometry" />
        </mxCell>
        <mxCell id="2aaTuEuAqetz4Rh4aNKG-7" value="ESCREVA &quot;INFORME O VALOR DO PRODUTO&quot;" style="shape=manualInput;whiteSpace=wrap;html=1;" vertex="1" parent="1">
          <mxGeometry x="281" y="270" width="269" height="90" as="geometry" />
        </mxCell>
        <mxCell id="2aaTuEuAqetz4Rh4aNKG-25" value="" style="edgeStyle=orthogonalEdgeStyle;rounded=0;orthogonalLoop=1;jettySize=auto;html=1;" edge="1" parent="1" source="2aaTuEuAqetz4Rh4aNKG-9" target="2aaTuEuAqetz4Rh4aNKG-16">
          <mxGeometry relative="1" as="geometry" />
        </mxCell>
        <mxCell id="2aaTuEuAqetz4Rh4aNKG-9" value="LEIA VALORPRODUTO" style="rounded=0;whiteSpace=wrap;html=1;" vertex="1" parent="1">
          <mxGeometry x="281" y="390" width="270" height="60" as="geometry" />
        </mxCell>
        <mxCell id="2aaTuEuAqetz4Rh4aNKG-13" style="edgeStyle=orthogonalEdgeStyle;rounded=0;orthogonalLoop=1;jettySize=auto;html=1;exitX=0.5;exitY=1;exitDx=0;exitDy=0;entryX=0.483;entryY=0.178;entryDx=0;entryDy=0;entryPerimeter=0;" edge="1" parent="1" source="2aaTuEuAqetz4Rh4aNKG-6" target="2aaTuEuAqetz4Rh4aNKG-7">
          <mxGeometry relative="1" as="geometry" />
        </mxCell>
        <mxCell id="2aaTuEuAqetz4Rh4aNKG-26" value="" style="edgeStyle=orthogonalEdgeStyle;rounded=0;orthogonalLoop=1;jettySize=auto;html=1;" edge="1" parent="1" source="2aaTuEuAqetz4Rh4aNKG-16" target="2aaTuEuAqetz4Rh4aNKG-17">
          <mxGeometry relative="1" as="geometry" />
        </mxCell>
        <mxCell id="2aaTuEuAqetz4Rh4aNKG-16" value="ESCREVA &quot;TABELA DE CÓDIGO DE CONDIÇÕES DE PAGAMENTO&quot;" style="shape=display;whiteSpace=wrap;html=1;" vertex="1" parent="1">
          <mxGeometry x="280" y="480" width="270" height="50" as="geometry" />
        </mxCell>
        <mxCell id="2aaTuEuAqetz4Rh4aNKG-27" value="" style="edgeStyle=orthogonalEdgeStyle;rounded=0;orthogonalLoop=1;jettySize=auto;html=1;" edge="1" parent="1" source="2aaTuEuAqetz4Rh4aNKG-17" target="2aaTuEuAqetz4Rh4aNKG-18">
          <mxGeometry relative="1" as="geometry" />
        </mxCell>
        <mxCell id="2aaTuEuAqetz4Rh4aNKG-17" value="ESCREVA &quot;1 - À VISTA EM DINHEIRO OU PIX, 15% DE DESCONTO&quot;" style="shape=display;whiteSpace=wrap;html=1;" vertex="1" parent="1">
          <mxGeometry x="280" y="570" width="270" height="50" as="geometry" />
        </mxCell>
        <mxCell id="2aaTuEuAqetz4Rh4aNKG-28" value="" style="edgeStyle=orthogonalEdgeStyle;rounded=0;orthogonalLoop=1;jettySize=auto;html=1;" edge="1" parent="1" source="2aaTuEuAqetz4Rh4aNKG-18" target="2aaTuEuAqetz4Rh4aNKG-19">
          <mxGeometry relative="1" as="geometry" />
        </mxCell>
        <mxCell id="2aaTuEuAqetz4Rh4aNKG-18" value="ESCREVA &quot;2 - À VISTA NO CARTÃO DE CRÉDITO, 10% DE DESCONTO&quot;" style="shape=display;whiteSpace=wrap;html=1;" vertex="1" parent="1">
          <mxGeometry x="280" y="670" width="270" height="50" as="geometry" />
        </mxCell>
        <mxCell id="2aaTuEuAqetz4Rh4aNKG-19" value="ESCREVA &quot;3 - PARCELADO NO CARTÃO DE CRÉDITO EM DUAS VEZES, VALOR NORMAL&quot;" style="shape=display;whiteSpace=wrap;html=1;" vertex="1" parent="1">
          <mxGeometry x="272" y="770" width="270" height="50" as="geometry" />
        </mxCell>
        <mxCell id="2aaTuEuAqetz4Rh4aNKG-20" value="ESCREVA &quot;4 - PARCELADO NO CARTÃO DE CRÉDITO EM TRÊS VEZES OU MAIS, PREÇO NORMAL + 10% DE JUROS &quot;" style="shape=display;whiteSpace=wrap;html=1;" vertex="1" parent="1">
          <mxGeometry x="272" y="850" width="270" height="50" as="geometry" />
        </mxCell>
        <mxCell id="2aaTuEuAqetz4Rh4aNKG-21" value="ESCREVA &quot;INFORME A FORMA DE PAGAMENTO&quot;" style="shape=manualInput;whiteSpace=wrap;html=1;" vertex="1" parent="1">
          <mxGeometry x="277" y="930" width="269" height="90" as="geometry" />
        </mxCell>
        <mxCell id="2aaTuEuAqetz4Rh4aNKG-23" value="LEIA FORMAPAGAMENTO" style="rounded=0;whiteSpace=wrap;html=1;" vertex="1" parent="1">
          <mxGeometry x="279" y="1050" width="270" height="60" as="geometry" />
        </mxCell>
        <mxCell id="2aaTuEuAqetz4Rh4aNKG-24" value="ESCOLHA FORMAPAGAMENTO" style="rhombus;whiteSpace=wrap;html=1;" vertex="1" parent="1">
          <mxGeometry x="277" y="1160" width="263" height="80" as="geometry" />
        </mxCell>
      </root>
    </mxGraphModel>
  </diagram>
</mxfile>
